<?xml version="1.0" encoding="UTF-8"?>
<!-- Generator: visioncortex VTracer -->
<svg id="svg" version="1.1" xmlns="http://www.w3.org/2000/svg" viewBox="0 0 500 500" style="display: block;"><path d="M0,0 L254,0 L254,66 L253,67 L65,67 L65,187 L440,187 L441,190 L441,347 L440,348 L1,348 L0,347 L0,282 L375,282 L375,254 L0,254 Z " transform="translate(30,123)" style="fill: #1C1C1A;"/><path d="M0,0 L440,0 L441,1 L441,64 L440,65 L347,65 L347,187 L440,187 L441,189 L441,251 L440,254 L93,254 L93,187 L280,187 L280,65 L0,65 Z " transform="translate(30,30)" style="fill: #1C1C1A;"/><path d="M0,0 L65,0 L66,1 L66,65 L65,67 L1,67 L0,66 Z " transform="translate(405,123)" style="fill: #1C1C1A;"/><path d="M0,0 L2,1 Z " transform="translate(406,189)" style="fill: #333333;"/><path d="M0,0 Z " transform="translate(30,405)" style="fill: #000000;"/><path d="M0,0 Z " transform="translate(123,217)" style="fill: #202020;"/><path d="M0,0 Z " transform="translate(406,189)" style="fill: #404000;"/><path d="M0,0 Z " transform="translate(282,189)" style="fill: #000000;"/><path d="M0,0 Z " transform="translate(281,189)" style="fill: #404040;"/><path d="M0,0 Z " transform="translate(405,188)" style="fill: #333300;"/><path d="M0,0 Z " transform="translate(405,123)" style="fill: #2A2A2A;"/><path d="M0,0 Z " transform="translate(30,123)" style="fill: #141414;"/></svg>